<svg xmlns="http://www.w3.org/2000/svg" width="960" height="560" viewBox="0 0 960 560" role="img" aria-labelledby="title desc"><title id="title">B3 Transition Robustness</title><desc id="desc">Current-Step retrieval after accumulated semantic transitions.</desc><rect width="960" height="560" rx="18" fill="#FBFCFE"/><text x="82" y="38" font-family="system-ui,sans-serif" font-size="24" font-weight="700" fill="#17202A">B3 Transition Robustness</text><text x="82" y="66" font-family="system-ui,sans-serif" font-size="13" fill="#5D6D7E">Current-Step retrieval after accumulated semantic transitions.</text><line x1="82" y1="91" x2="110" y2="91" stroke="#2A9D8F" stroke-width="3"/><circle cx="96" cy="91" r="4" fill="#2A9D8F"/><text x="118" y="96" font-family="system-ui,sans-serif" font-size="13" fill="#17202A">B3 z_t current</text><line x1="82" y1="460.00" x2="928" y2="460.00" stroke="#DCE2EA" stroke-width="1"/><text x="68" y="464.00" text-anchor="end" font-family="system-ui,sans-serif" font-size="12" fill="#5D6D7E">0.0</text><line x1="82" y1="391.20" x2="928" y2="391.20" stroke="#DCE2EA" stroke-width="1"/><text x="68" y="395.20" text-anchor="end" font-family="system-ui,sans-serif" font-size="12" fill="#5D6D7E">0.2</text><line x1="82" y1="322.40" x2="928" y2="322.40" stroke="#DCE2EA" stroke-width="1"/><text x="68" y="326.40" text-anchor="end" font-family="system-ui,sans-serif" font-size="12" fill="#5D6D7E">0.4</text><line x1="82" y1="253.60" x2="928" y2="253.60" stroke="#DCE2EA" stroke-width="1"/><text x="68" y="257.60" text-anchor="end" font-family="system-ui,sans-serif" font-size="12" fill="#5D6D7E">0.6</text><line x1="82" y1="184.80" x2="928" y2="184.80" stroke="#DCE2EA" stroke-width="1"/><text x="68" y="188.80" text-anchor="end" font-family="system-ui,sans-serif" font-size="12" fill="#5D6D7E">0.8</text><line x1="82" y1="116.00" x2="928" y2="116.00" stroke="#DCE2EA" stroke-width="1"/><text x="68" y="120.00" text-anchor="end" font-family="system-ui,sans-serif" font-size="12" fill="#5D6D7E">1.0</text><line x1="82" y1="116" x2="82" y2="460" stroke="#17202A" stroke-width="1.5"/><line x1="82" y1="460" x2="928" y2="460" stroke="#17202A" stroke-width="1.5"/><text x="82.00" y="487" text-anchor="middle" font-family="system-ui,sans-serif" font-size="12" fill="#17202A">0</text><text x="82.00" y="505" text-anchor="middle" font-family="system-ui,sans-serif" font-size="10" fill="#5D6D7E">n=2,384</text><text x="187.75" y="487" text-anchor="middle" font-family="system-ui,sans-serif" font-size="12" fill="#17202A">1</text><text x="187.75" y="505" text-anchor="middle" font-family="system-ui,sans-serif" font-size="10" fill="#5D6D7E">n=2,270</text><text x="293.50" y="487" text-anchor="middle" font-family="system-ui,sans-serif" font-size="12" fill="#17202A">2</text><text x="293.50" y="505" text-anchor="middle" font-family="system-ui,sans-serif" font-size="10" fill="#5D6D7E">n=2,158</text><text x="399.25" y="487" text-anchor="middle" font-family="system-ui,sans-serif" font-size="12" fill="#17202A">3</text><text x="399.25" y="505" text-anchor="middle" font-family="system-ui,sans-serif" font-size="10" fill="#5D6D7E">n=2,268</text><text x="505.00" y="487" text-anchor="middle" font-family="system-ui,sans-serif" font-size="12" fill="#17202A">4</text><text x="505.00" y="505" text-anchor="middle" font-family="system-ui,sans-serif" font-size="10" fill="#5D6D7E">n=2,275</text><text x="610.75" y="487" text-anchor="middle" font-family="system-ui,sans-serif" font-size="12" fill="#17202A">5</text><text x="610.75" y="505" text-anchor="middle" font-family="system-ui,sans-serif" font-size="10" fill="#5D6D7E">n=2,194</text><text x="716.50" y="487" text-anchor="middle" font-family="system-ui,sans-serif" font-size="12" fill="#17202A">6</text><text x="716.50" y="505" text-anchor="middle" font-family="system-ui,sans-serif" font-size="10" fill="#5D6D7E">n=2,012</text><text x="822.25" y="487" text-anchor="middle" font-family="system-ui,sans-serif" font-size="12" fill="#17202A">7</text><text x="822.25" y="505" text-anchor="middle" font-family="system-ui,sans-serif" font-size="10" fill="#5D6D7E">n=1,738</text><text x="928.00" y="487" text-anchor="middle" font-family="system-ui,sans-serif" font-size="12" fill="#17202A">8+</text><text x="928.00" y="505" text-anchor="middle" font-family="system-ui,sans-serif" font-size="10" fill="#5D6D7E">n=3,622</text><text x="505.00" y="542" text-anchor="middle" font-family="system-ui,sans-serif" font-size="13" font-weight="600" fill="#17202A">Cumulative transition count</text><text x="20" y="288.00" text-anchor="middle" transform="rotate(-90 20 288.00)" font-family="system-ui,sans-serif" font-size="13" font-weight="600" fill="#17202A">Recall@1</text><polyline points="82.00,258.63 187.75,368.08 293.50,376.91 399.25,393.47 505.00,371.73 610.75,395.01 716.50,396.39 822.25,370.02 928.00,398.69" fill="none" stroke="#2A9D8F" stroke-width="3" stroke-linejoin="round" stroke-linecap="round"/><line x1="82.00" y1="233.58" x2="82.00" y2="283.14" stroke="#2A9D8F" stroke-width="1.5" opacity="0.75"/><line x1="77.00" y1="233.58" x2="87.00" y2="233.58" stroke="#2A9D8F" stroke-width="1.5"/><line x1="77.00" y1="283.14" x2="87.00" y2="283.14" stroke="#2A9D8F" stroke-width="1.5"/><circle cx="82.00" cy="258.63" r="5" fill="#FBFCFE" stroke="#2A9D8F" stroke-width="3"><title>B3 z_t current: 0.5854</title></circle><line x1="187.75" y1="348.25" x2="187.75" y2="387.35" stroke="#2A9D8F" stroke-width="1.5" opacity="0.75"/><line x1="182.75" y1="348.25" x2="192.75" y2="348.25" stroke="#2A9D8F" stroke-width="1.5"/><line x1="182.75" y1="387.35" x2="192.75" y2="387.35" stroke="#2A9D8F" stroke-width="1.5"/><circle cx="187.75" cy="368.08" r="5" fill="#FBFCFE" stroke="#2A9D8F" stroke-width="3"><title>B3 z_t current: 0.2672</title></circle><line x1="293.50" y1="356.16" x2="293.50" y2="395.93" stroke="#2A9D8F" stroke-width="1.5" opacity="0.75"/><line x1="288.50" y1="356.16" x2="298.50" y2="356.16" stroke="#2A9D8F" stroke-width="1.5"/><line x1="288.50" y1="395.93" x2="298.50" y2="395.93" stroke="#2A9D8F" stroke-width="1.5"/><circle cx="293.50" cy="376.91" r="5" fill="#FBFCFE" stroke="#2A9D8F" stroke-width="3"><title>B3 z_t current: 0.2415</title></circle><line x1="399.25" y1="377.10" x2="399.25" y2="407.95" stroke="#2A9D8F" stroke-width="1.5" opacity="0.75"/><line x1="394.25" y1="377.10" x2="404.25" y2="377.10" stroke="#2A9D8F" stroke-width="1.5"/><line x1="394.25" y1="407.95" x2="404.25" y2="407.95" stroke="#2A9D8F" stroke-width="1.5"/><circle cx="399.25" cy="393.47" r="5" fill="#FBFCFE" stroke="#2A9D8F" stroke-width="3"><title>B3 z_t current: 0.1934</title></circle><line x1="505.00" y1="348.76" x2="505.00" y2="393.19" stroke="#2A9D8F" stroke-width="1.5" opacity="0.75"/><line x1="500.00" y1="348.76" x2="510.00" y2="348.76" stroke="#2A9D8F" stroke-width="1.5"/><line x1="500.00" y1="393.19" x2="510.00" y2="393.19" stroke="#2A9D8F" stroke-width="1.5"/><circle cx="505.00" cy="371.73" r="5" fill="#FBFCFE" stroke="#2A9D8F" stroke-width="3"><title>B3 z_t current: 0.2566</title></circle><line x1="610.75" y1="376.90" x2="610.75" y2="412.07" stroke="#2A9D8F" stroke-width="1.5" opacity="0.75"/><line x1="605.75" y1="376.90" x2="615.75" y2="376.90" stroke="#2A9D8F" stroke-width="1.5"/><line x1="605.75" y1="412.07" x2="615.75" y2="412.07" stroke="#2A9D8F" stroke-width="1.5"/><circle cx="610.75" cy="395.01" r="5" fill="#FBFCFE" stroke="#2A9D8F" stroke-width="3"><title>B3 z_t current: 0.1889</title></circle><line x1="716.50" y1="377.77" x2="716.50" y2="413.28" stroke="#2A9D8F" stroke-width="1.5" opacity="0.75"/><line x1="711.50" y1="377.77" x2="721.50" y2="377.77" stroke="#2A9D8F" stroke-width="1.5"/><line x1="711.50" y1="413.28" x2="721.50" y2="413.28" stroke="#2A9D8F" stroke-width="1.5"/><circle cx="716.50" cy="396.39" r="5" fill="#FBFCFE" stroke="#2A9D8F" stroke-width="3"><title>B3 z_t current: 0.1849</title></circle><line x1="822.25" y1="345.05" x2="822.25" y2="394.46" stroke="#2A9D8F" stroke-width="1.5" opacity="0.75"/><line x1="817.25" y1="345.05" x2="827.25" y2="345.05" stroke="#2A9D8F" stroke-width="1.5"/><line x1="817.25" y1="394.46" x2="827.25" y2="394.46" stroke="#2A9D8F" stroke-width="1.5"/><circle cx="822.25" cy="370.02" r="5" fill="#FBFCFE" stroke="#2A9D8F" stroke-width="3"><title>B3 z_t current: 0.2616</title></circle><line x1="928.00" y1="381.19" x2="928.00" y2="414.03" stroke="#2A9D8F" stroke-width="1.5" opacity="0.75"/><line x1="923.00" y1="381.19" x2="933.00" y2="381.19" stroke="#2A9D8F" stroke-width="1.5"/><line x1="923.00" y1="414.03" x2="933.00" y2="414.03" stroke="#2A9D8F" stroke-width="1.5"/><circle cx="928.00" cy="398.69" r="5" fill="#FBFCFE" stroke="#2A9D8F" stroke-width="3"><title>B3 z_t current: 0.1782</title></circle></svg>
