<svg xmlns="http://www.w3.org/2000/svg" width="960" height="560" viewBox="0 0 960 560" role="img" aria-labelledby="title desc"><title id="title">B1 Current-Step Retention</title><desc id="desc">Trajectory-macro Recall@1 with 95% trajectory-bootstrap CI; r_t is the instantaneous control.</desc><rect width="960" height="560" rx="18" fill="#FBFCFE"/><text x="82" y="38" font-family="system-ui,sans-serif" font-size="24" font-weight="700" fill="#17202A">B1 Current-Step Retention</text><text x="82" y="66" font-family="system-ui,sans-serif" font-size="13" fill="#5D6D7E">Trajectory-macro Recall@1 with 95% trajectory-bootstrap CI; r_t is the instantaneous control.</text><line x1="82" y1="91" x2="110" y2="91" stroke="#F58518" stroke-width="3"/><circle cx="96" cy="91" r="4" fill="#F58518"/><text x="118" y="96" font-family="system-ui,sans-serif" font-size="13" fill="#17202A">B1 z_t current</text><line x1="242" y1="91" x2="270" y2="91" stroke="#7A7A7A" stroke-width="3" stroke-dasharray="7 5"/><circle cx="256" cy="91" r="4" fill="#7A7A7A"/><text x="278" y="96" font-family="system-ui,sans-serif" font-size="13" fill="#17202A">r_t current control</text><line x1="82" y1="460.00" x2="928" y2="460.00" stroke="#DCE2EA" stroke-width="1"/><text x="68" y="464.00" text-anchor="end" font-family="system-ui,sans-serif" font-size="12" fill="#5D6D7E">0.0</text><line x1="82" y1="391.20" x2="928" y2="391.20" stroke="#DCE2EA" stroke-width="1"/><text x="68" y="395.20" text-anchor="end" font-family="system-ui,sans-serif" font-size="12" fill="#5D6D7E">0.2</text><line x1="82" y1="322.40" x2="928" y2="322.40" stroke="#DCE2EA" stroke-width="1"/><text x="68" y="326.40" text-anchor="end" font-family="system-ui,sans-serif" font-size="12" fill="#5D6D7E">0.4</text><line x1="82" y1="253.60" x2="928" y2="253.60" stroke="#DCE2EA" stroke-width="1"/><text x="68" y="257.60" text-anchor="end" font-family="system-ui,sans-serif" font-size="12" fill="#5D6D7E">0.6</text><line x1="82" y1="184.80" x2="928" y2="184.80" stroke="#DCE2EA" stroke-width="1"/><text x="68" y="188.80" text-anchor="end" font-family="system-ui,sans-serif" font-size="12" fill="#5D6D7E">0.8</text><line x1="82" y1="116.00" x2="928" y2="116.00" stroke="#DCE2EA" stroke-width="1"/><text x="68" y="120.00" text-anchor="end" font-family="system-ui,sans-serif" font-size="12" fill="#5D6D7E">1.0</text><line x1="82" y1="116" x2="82" y2="460" stroke="#17202A" stroke-width="1.5"/><line x1="82" y1="460" x2="928" y2="460" stroke="#17202A" stroke-width="1.5"/><text x="82.00" y="487" text-anchor="middle" font-family="system-ui,sans-serif" font-size="12" fill="#17202A">0-4</text><text x="82.00" y="505" text-anchor="middle" font-family="system-ui,sans-serif" font-size="10" fill="#5D6D7E">n=3,516</text><text x="223.00" y="487" text-anchor="middle" font-family="system-ui,sans-serif" font-size="12" fill="#17202A">5-19</text><text x="223.00" y="505" text-anchor="middle" font-family="system-ui,sans-serif" font-size="10" fill="#5D6D7E">n=3,516</text><text x="364.00" y="487" text-anchor="middle" font-family="system-ui,sans-serif" font-size="12" fill="#17202A">20-49</text><text x="364.00" y="505" text-anchor="middle" font-family="system-ui,sans-serif" font-size="10" fill="#5D6D7E">n=3,516</text><text x="505.00" y="487" text-anchor="middle" font-family="system-ui,sans-serif" font-size="12" fill="#17202A">50-99</text><text x="505.00" y="505" text-anchor="middle" font-family="system-ui,sans-serif" font-size="10" fill="#5D6D7E">n=3,505</text><text x="646.00" y="487" text-anchor="middle" font-family="system-ui,sans-serif" font-size="12" fill="#17202A">100-199</text><text x="646.00" y="505" text-anchor="middle" font-family="system-ui,sans-serif" font-size="10" fill="#5D6D7E">n=3,415</text><text x="787.00" y="487" text-anchor="middle" font-family="system-ui,sans-serif" font-size="12" fill="#17202A">200-399</text><text x="787.00" y="505" text-anchor="middle" font-family="system-ui,sans-serif" font-size="10" fill="#5D6D7E">n=2,576</text><text x="928.00" y="487" text-anchor="middle" font-family="system-ui,sans-serif" font-size="12" fill="#17202A">400+</text><text x="928.00" y="505" text-anchor="middle" font-family="system-ui,sans-serif" font-size="10" fill="#5D6D7E">n=877</text><text x="505.00" y="542" text-anchor="middle" font-family="system-ui,sans-serif" font-size="13" font-weight="600" fill="#17202A">Steps since transition</text><text x="20" y="288.00" text-anchor="middle" transform="rotate(-90 20 288.00)" font-family="system-ui,sans-serif" font-size="13" font-weight="600" fill="#17202A">Recall@1</text><polyline points="82.00,377.02 223.00,375.62 364.00,367.90 505.00,364.42 646.00,362.46 787.00,345.17 928.00,321.12" fill="none" stroke="#F58518" stroke-width="3" stroke-linejoin="round" stroke-linecap="round"/><line x1="82.00" y1="367.27" x2="82.00" y2="386.04" stroke="#F58518" stroke-width="1.5" opacity="0.75"/><line x1="77.00" y1="367.27" x2="87.00" y2="367.27" stroke="#F58518" stroke-width="1.5"/><line x1="77.00" y1="386.04" x2="87.00" y2="386.04" stroke="#F58518" stroke-width="1.5"/><circle cx="82.00" cy="377.02" r="5" fill="#FBFCFE" stroke="#F58518" stroke-width="3"><title>B1 z_t current: 0.2412</title></circle><line x1="223.00" y1="366.07" x2="223.00" y2="384.53" stroke="#F58518" stroke-width="1.5" opacity="0.75"/><line x1="218.00" y1="366.07" x2="228.00" y2="366.07" stroke="#F58518" stroke-width="1.5"/><line x1="218.00" y1="384.53" x2="228.00" y2="384.53" stroke="#F58518" stroke-width="1.5"/><circle cx="223.00" cy="375.62" r="5" fill="#FBFCFE" stroke="#F58518" stroke-width="3"><title>B1 z_t current: 0.2453</title></circle><line x1="364.00" y1="358.22" x2="364.00" y2="377.43" stroke="#F58518" stroke-width="1.5" opacity="0.75"/><line x1="359.00" y1="358.22" x2="369.00" y2="358.22" stroke="#F58518" stroke-width="1.5"/><line x1="359.00" y1="377.43" x2="369.00" y2="377.43" stroke="#F58518" stroke-width="1.5"/><circle cx="364.00" cy="367.90" r="5" fill="#FBFCFE" stroke="#F58518" stroke-width="3"><title>B1 z_t current: 0.2677</title></circle><line x1="505.00" y1="355.01" x2="505.00" y2="372.63" stroke="#F58518" stroke-width="1.5" opacity="0.75"/><line x1="500.00" y1="355.01" x2="510.00" y2="355.01" stroke="#F58518" stroke-width="1.5"/><line x1="500.00" y1="372.63" x2="510.00" y2="372.63" stroke="#F58518" stroke-width="1.5"/><circle cx="505.00" cy="364.42" r="5" fill="#FBFCFE" stroke="#F58518" stroke-width="3"><title>B1 z_t current: 0.2779</title></circle><line x1="646.00" y1="354.08" x2="646.00" y2="370.86" stroke="#F58518" stroke-width="1.5" opacity="0.75"/><line x1="641.00" y1="354.08" x2="651.00" y2="354.08" stroke="#F58518" stroke-width="1.5"/><line x1="641.00" y1="370.86" x2="651.00" y2="370.86" stroke="#F58518" stroke-width="1.5"/><circle cx="646.00" cy="362.46" r="5" fill="#FBFCFE" stroke="#F58518" stroke-width="3"><title>B1 z_t current: 0.2836</title></circle><line x1="787.00" y1="333.23" x2="787.00" y2="355.70" stroke="#F58518" stroke-width="1.5" opacity="0.75"/><line x1="782.00" y1="333.23" x2="792.00" y2="333.23" stroke="#F58518" stroke-width="1.5"/><line x1="782.00" y1="355.70" x2="792.00" y2="355.70" stroke="#F58518" stroke-width="1.5"/><circle cx="787.00" cy="345.17" r="5" fill="#FBFCFE" stroke="#F58518" stroke-width="3"><title>B1 z_t current: 0.3338</title></circle><line x1="928.00" y1="297.54" x2="928.00" y2="343.33" stroke="#F58518" stroke-width="1.5" opacity="0.75"/><line x1="923.00" y1="297.54" x2="933.00" y2="297.54" stroke="#F58518" stroke-width="1.5"/><line x1="923.00" y1="343.33" x2="933.00" y2="343.33" stroke="#F58518" stroke-width="1.5"/><circle cx="928.00" cy="321.12" r="5" fill="#FBFCFE" stroke="#F58518" stroke-width="3"><title>B1 z_t current: 0.4037</title></circle><polyline points="82.00,380.13 223.00,376.59 364.00,374.40 505.00,372.94 646.00,366.41 787.00,350.43 928.00,339.88" fill="none" stroke="#7A7A7A" stroke-width="3" stroke-linejoin="round" stroke-linecap="round" stroke-dasharray="7 5"/><line x1="82.00" y1="371.55" x2="82.00" y2="388.04" stroke="#7A7A7A" stroke-width="1.5" opacity="0.75"/><line x1="77.00" y1="371.55" x2="87.00" y2="371.55" stroke="#7A7A7A" stroke-width="1.5"/><line x1="77.00" y1="388.04" x2="87.00" y2="388.04" stroke="#7A7A7A" stroke-width="1.5"/><circle cx="82.00" cy="380.13" r="5" fill="#FBFCFE" stroke="#7A7A7A" stroke-width="3"><title>r_t current control: 0.2322</title></circle><line x1="223.00" y1="366.95" x2="223.00" y2="385.39" stroke="#7A7A7A" stroke-width="1.5" opacity="0.75"/><line x1="218.00" y1="366.95" x2="228.00" y2="366.95" stroke="#7A7A7A" stroke-width="1.5"/><line x1="218.00" y1="385.39" x2="228.00" y2="385.39" stroke="#7A7A7A" stroke-width="1.5"/><circle cx="223.00" cy="376.59" r="5" fill="#FBFCFE" stroke="#7A7A7A" stroke-width="3"><title>r_t current control: 0.2425</title></circle><line x1="364.00" y1="364.83" x2="364.00" y2="383.47" stroke="#7A7A7A" stroke-width="1.5" opacity="0.75"/><line x1="359.00" y1="364.83" x2="369.00" y2="364.83" stroke="#7A7A7A" stroke-width="1.5"/><line x1="359.00" y1="383.47" x2="369.00" y2="383.47" stroke="#7A7A7A" stroke-width="1.5"/><circle cx="364.00" cy="374.40" r="5" fill="#FBFCFE" stroke="#7A7A7A" stroke-width="3"><title>r_t current control: 0.2489</title></circle><line x1="505.00" y1="364.28" x2="505.00" y2="380.82" stroke="#7A7A7A" stroke-width="1.5" opacity="0.75"/><line x1="500.00" y1="364.28" x2="510.00" y2="364.28" stroke="#7A7A7A" stroke-width="1.5"/><line x1="500.00" y1="380.82" x2="510.00" y2="380.82" stroke="#7A7A7A" stroke-width="1.5"/><circle cx="505.00" cy="372.94" r="5" fill="#FBFCFE" stroke="#7A7A7A" stroke-width="3"><title>r_t current control: 0.2531</title></circle><line x1="646.00" y1="357.80" x2="646.00" y2="374.01" stroke="#7A7A7A" stroke-width="1.5" opacity="0.75"/><line x1="641.00" y1="357.80" x2="651.00" y2="357.80" stroke="#7A7A7A" stroke-width="1.5"/><line x1="641.00" y1="374.01" x2="651.00" y2="374.01" stroke="#7A7A7A" stroke-width="1.5"/><circle cx="646.00" cy="366.41" r="5" fill="#FBFCFE" stroke="#7A7A7A" stroke-width="3"><title>r_t current control: 0.2721</title></circle><line x1="787.00" y1="337.23" x2="787.00" y2="362.83" stroke="#7A7A7A" stroke-width="1.5" opacity="0.75"/><line x1="782.00" y1="337.23" x2="792.00" y2="337.23" stroke="#7A7A7A" stroke-width="1.5"/><line x1="782.00" y1="362.83" x2="792.00" y2="362.83" stroke="#7A7A7A" stroke-width="1.5"/><circle cx="787.00" cy="350.43" r="5" fill="#FBFCFE" stroke="#7A7A7A" stroke-width="3"><title>r_t current control: 0.3185</title></circle><line x1="928.00" y1="314.76" x2="928.00" y2="361.05" stroke="#7A7A7A" stroke-width="1.5" opacity="0.75"/><line x1="923.00" y1="314.76" x2="933.00" y2="314.76" stroke="#7A7A7A" stroke-width="1.5"/><line x1="923.00" y1="361.05" x2="933.00" y2="361.05" stroke="#7A7A7A" stroke-width="1.5"/><circle cx="928.00" cy="339.88" r="5" fill="#FBFCFE" stroke="#7A7A7A" stroke-width="3"><title>r_t current control: 0.3492</title></circle></svg>
